<?xml version="1.0" encoding="UTF-8" standalone="no"?><svg xmlns="http://www.w3.org/2000/svg" xmlns:xlink="http://www.w3.org/1999/xlink" contentScriptType="application/ecmascript" contentStyleType="text/css" height="646px" preserveAspectRatio="none" style="width:450px;height:646px;background:#FFFFFF;" version="1.1" viewBox="0 0 450 646" width="450px" zoomAndPan="magnify"><defs><filter height="300%" id="f1gt217gdle0od" width="300%" x="-1" y="-1"><feGaussianBlur result="blurOut" stdDeviation="2.0"/><feColorMatrix in="blurOut" result="blurOut2" type="matrix" values="0 0 0 0 0 0 0 0 0 0 0 0 0 0 0 0 0 0 .4 0"/><feOffset dx="4.0" dy="4.0" in="blurOut2" result="blurOut3"/><feBlend in="SourceGraphic" in2="blurOut3" mode="normal"/></filter></defs><g><!--MD5=[22af4938a607d33570c0ec86a2053e7d]
cluster psr.container--><polygon fill="#FFFFFF" filter="url(#f1gt217gdle0od)" points="73,6,172,6,179,28.4883,251,28.4883,251,131,73,131,73,6" style="stroke:#000000;stroke-width:1.5;"/><line style="stroke:#000000;stroke-width:1.5;" x1="73" x2="179" y1="28.4883" y2="28.4883"/><text fill="#000000" font-family="sans-serif" font-size="14" font-weight="bold" lengthAdjust="spacing" textLength="93" x="77" y="21.5352">psr.container</text><!--MD5=[4cd7b6e9d8726ab4e3cdd2f84d6aea7b]
cluster md.di--><polygon fill="#FFFFFF" filter="url(#f1gt217gdle0od)" points="16,155,62,155,69,177.4883,433,177.4883,433,639,16,639,16,155" style="stroke:#000000;stroke-width:1.5;"/><line style="stroke:#000000;stroke-width:1.5;" x1="16" x2="69" y1="177.4883" y2="177.4883"/><text fill="#000000" font-family="sans-serif" font-size="14" font-weight="bold" lengthAdjust="spacing" textLength="40" x="20" y="170.5352">md.di</text><!--MD5=[5b869f8424d6dde6cb7aa70d7c23cde3]
class psr.container.ContainerInterface--><rect codeLine="11" fill="#EBEBEB" filter="url(#f1gt217gdle0od)" height="73.9102" id="psr.container.ContainerInterface" style="stroke:#000000;stroke-width:1.5;" width="145" x="89.5" y="41"/><ellipse cx="108.1" cy="57" fill="#B4A7E5" rx="11" ry="11" style="stroke:#000000;stroke-width:1.0;"/><path d="M104.0277,52.7651 L104.0277,50.6069 L111.4071,50.6069 L111.4071,52.7651 L108.9418,52.7651 L108.9418,60.8418 L111.4071,60.8418 L111.4071,63 L104.0277,63 L104.0277,60.8418 L106.4931,60.8418 L106.4931,52.7651 Z " fill="#000000"/><text fill="#000000" font-family="sans-serif" font-size="12" font-style="italic" lengthAdjust="spacing" textLength="105" x="122.9" y="61.5352">ContainerInterface</text><line style="stroke:#000000;stroke-width:1.5;" x1="90.5" x2="233.5" y1="73" y2="73"/><line style="stroke:#000000;stroke-width:1.5;" x1="90.5" x2="233.5" y1="81" y2="81"/><ellipse cx="100.5" cy="92" fill="#84BE84" rx="3" ry="3" style="stroke:#038048;stroke-width:1.0;"/><text fill="#000000" font-family="sans-serif" font-size="11" lengthAdjust="spacing" textLength="119" x="109.5" y="95.6348">get (id_: str) -&gt; object</text><ellipse cx="100.5" cy="104.9551" fill="#84BE84" rx="3" ry="3" style="stroke:#038048;stroke-width:1.0;"/><text fill="#000000" font-family="sans-serif" font-size="11" lengthAdjust="spacing" textLength="112" x="109.5" y="108.5898">has (id_: str) -&gt; bool</text><!--MD5=[76321d756479152174ddaa7f9ce153b8]
class md.di.Container--><rect codeLine="18" fill="#EBEBEB" filter="url(#f1gt217gdle0od)" height="86.8652" id="md.di.Container" style="stroke:#000000;stroke-width:1.5;" width="229" x="47.5" y="190"/><ellipse cx="130.25" cy="206" fill="#ADD1B2" rx="11" ry="11" style="stroke:#000000;stroke-width:1.0;"/><path d="M133.2231,211.6431 Q132.6421,211.9419 132.0029,212.0913 Q131.3638,212.2407 130.6582,212.2407 Q128.1514,212.2407 126.8315,210.5889 Q125.5117,208.937 125.5117,205.8159 Q125.5117,202.6865 126.8315,201.0347 Q128.1514,199.3828 130.6582,199.3828 Q131.3638,199.3828 132.0112,199.5322 Q132.6587,199.6816 133.2231,199.9805 L133.2231,202.7031 Q132.5923,202.1221 131.9988,201.8523 Q131.4053,201.5825 130.7744,201.5825 Q129.4297,201.5825 128.7449,202.6492 Q128.0601,203.7158 128.0601,205.8159 Q128.0601,207.9077 128.7449,208.9744 Q129.4297,210.041 130.7744,210.041 Q131.4053,210.041 131.9988,209.7712 Q132.5923,209.5015 133.2231,208.9204 Z " fill="#000000"/><text fill="#000000" font-family="sans-serif" font-size="12" lengthAdjust="spacing" textLength="55" x="150.75" y="210.5352">Container</text><line style="stroke:#000000;stroke-width:1.5;" x1="48.5" x2="275.5" y1="222" y2="222"/><ellipse cx="58.5" cy="233" fill="#84BE84" rx="3" ry="3" style="stroke:#038048;stroke-width:1.0;"/><text fill="#000000" font-family="sans-serif" font-size="11" lengthAdjust="spacing" textLength="119" x="67.5" y="236.6348">get (id_: str) -&gt; object</text><ellipse cx="58.5" cy="245.9551" fill="#84BE84" rx="3" ry="3" style="stroke:#038048;stroke-width:1.0;"/><text fill="#000000" font-family="sans-serif" font-size="11" lengthAdjust="spacing" textLength="112" x="67.5" y="249.5898">has (id_: str) -&gt; bool</text><line style="stroke:#000000;stroke-width:1.0;" x1="48.5" x2="275.5" y1="255.9102" y2="255.9102"/><ellipse cx="58.5" cy="266.9102" fill="#84BE84" rx="3" ry="3" style="stroke:#038048;stroke-width:1.0;"/><text fill="#000000" font-family="sans-serif" font-size="11" lengthAdjust="spacing" textLength="203" x="67.5" y="270.5449">set (id_: str, instance: object) -&gt; None</text><!--MD5=[8a147f40ea24f6a913d92c158231aee9]
class md.di.Reference--><rect codeLine="25" fill="#EBEBEB" filter="url(#f1gt217gdle0od)" height="60.9551" id="md.di.Reference" style="stroke:#000000;stroke-width:1.5;" width="90" x="327" y="523"/><ellipse cx="342" cy="539" fill="#ADD1B2" rx="11" ry="11" style="stroke:#000000;stroke-width:1.0;"/><path d="M344.9731,544.6431 Q344.3921,544.9419 343.7529,545.0913 Q343.1138,545.2407 342.4082,545.2407 Q339.9014,545.2407 338.5815,543.5889 Q337.2617,541.937 337.2617,538.8159 Q337.2617,535.6865 338.5815,534.0347 Q339.9014,532.3828 342.4082,532.3828 Q343.1138,532.3828 343.7612,532.5322 Q344.4087,532.6816 344.9731,532.9805 L344.9731,535.7031 Q344.3423,535.1221 343.7488,534.8523 Q343.1553,534.5825 342.5244,534.5825 Q341.1797,534.5825 340.4949,535.6492 Q339.8101,536.7158 339.8101,538.8159 Q339.8101,540.9077 340.4949,541.9744 Q341.1797,543.041 342.5244,543.041 Q343.1553,543.041 343.7488,542.7712 Q344.3423,542.5015 344.9731,541.9204 Z " fill="#000000"/><text fill="#000000" font-family="sans-serif" font-size="12" lengthAdjust="spacing" textLength="58" x="356" y="543.5352">Reference</text><line style="stroke:#000000;stroke-width:1.5;" x1="328" x2="416" y1="555" y2="555"/><ellipse cx="338" cy="566" rx="3" ry="3" style="stroke:#038048;stroke-width:1.0;fill:none;"/><text fill="#000000" font-family="sans-serif" font-size="11" lengthAdjust="spacing" textLength="31" x="347" y="569.6348">id: str</text><line style="stroke:#000000;stroke-width:1.5;" x1="328" x2="416" y1="575.9551" y2="575.9551"/><!--MD5=[78d354bbc94732d57caecea7af665808]
class md.di.Definition--><rect codeLine="29" fill="#EBEBEB" filter="url(#f1gt217gdle0od)" height="138.6855" id="md.di.Definition" style="stroke:#000000;stroke-width:1.5;" width="260" x="32" y="484"/><ellipse cx="130.75" cy="500" fill="#ADD1B2" rx="11" ry="11" style="stroke:#000000;stroke-width:1.0;"/><path d="M133.7231,505.6431 Q133.1421,505.9419 132.5029,506.0913 Q131.8638,506.2407 131.1582,506.2407 Q128.6514,506.2407 127.3315,504.5889 Q126.0117,502.937 126.0117,499.8159 Q126.0117,496.6865 127.3315,495.0347 Q128.6514,493.3828 131.1582,493.3828 Q131.8638,493.3828 132.5112,493.5322 Q133.1587,493.6816 133.7231,493.9805 L133.7231,496.7031 Q133.0923,496.1221 132.4988,495.8523 Q131.9053,495.5825 131.2744,495.5825 Q129.9297,495.5825 129.2449,496.6492 Q128.5601,497.7158 128.5601,499.8159 Q128.5601,501.9077 129.2449,502.9744 Q129.9297,504.041 131.2744,504.041 Q131.9053,504.041 132.4988,503.7712 Q133.0923,503.5015 133.7231,502.9204 Z " fill="#000000"/><text fill="#000000" font-family="sans-serif" font-size="12" lengthAdjust="spacing" textLength="54" x="151.25" y="504.5352">Definition</text><line style="stroke:#000000;stroke-width:1.5;" x1="33" x2="291" y1="516" y2="516"/><ellipse cx="43" cy="527" rx="3" ry="3" style="stroke:#038048;stroke-width:1.0;fill:none;"/><text fill="#000000" font-family="sans-serif" font-size="11" lengthAdjust="spacing" textLength="116" x="52" y="530.6348">class_: Optional[type]</text><ellipse cx="43" cy="539.9551" rx="3" ry="3" style="stroke:#038048;stroke-width:1.0;fill:none;"/><text fill="#000000" font-family="sans-serif" font-size="11" lengthAdjust="spacing" textLength="164" x="52" y="543.5898">factory: Optional[FactoryType]</text><ellipse cx="43" cy="552.9102" rx="3" ry="3" style="stroke:#038048;stroke-width:1.0;fill:none;"/><text fill="#000000" font-family="sans-serif" font-size="11" lengthAdjust="spacing" textLength="234" x="52" y="556.5449">arguments: Dict[str, Union[Reference, Any]]</text><ellipse cx="43" cy="565.8652" rx="3" ry="3" style="stroke:#038048;stroke-width:1.0;fill:none;"/><text fill="#000000" font-family="sans-serif" font-size="11" lengthAdjust="spacing" textLength="155" x="52" y="569.5">calls: List[DefinitionCallType]</text><ellipse cx="43" cy="578.8203" rx="3" ry="3" style="stroke:#038048;stroke-width:1.0;fill:none;"/><text fill="#000000" font-family="sans-serif" font-size="11" lengthAdjust="spacing" textLength="63" x="52" y="582.4551">public: bool</text><ellipse cx="43" cy="591.7754" rx="3" ry="3" style="stroke:#038048;stroke-width:1.0;fill:none;"/><text fill="#000000" font-family="sans-serif" font-size="11" lengthAdjust="spacing" textLength="67" x="52" y="595.4102">shared: bool</text><ellipse cx="43" cy="604.7305" rx="3" ry="3" style="stroke:#038048;stroke-width:1.0;fill:none;"/><text fill="#000000" font-family="sans-serif" font-size="11" lengthAdjust="spacing" textLength="154" x="52" y="608.3652">tags: List[DefinitionTagType]</text><line style="stroke:#000000;stroke-width:1.5;" x1="33" x2="291" y1="614.6855" y2="614.6855"/><!--MD5=[098ab75ddc32b5355e6b3781091b26a9]
class md.di.Configuration--><rect codeLine="39" fill="#EBEBEB" filter="url(#f1gt217gdle0od)" height="86.8652" id="md.di.Configuration" style="stroke:#000000;stroke-width:1.5;" width="214" x="55" y="337"/><ellipse cx="119.75" cy="353" fill="#ADD1B2" rx="11" ry="11" style="stroke:#000000;stroke-width:1.0;"/><path d="M122.7231,358.6431 Q122.1421,358.9419 121.5029,359.0913 Q120.8638,359.2407 120.1582,359.2407 Q117.6514,359.2407 116.3315,357.5889 Q115.0117,355.937 115.0117,352.8159 Q115.0117,349.6865 116.3315,348.0347 Q117.6514,346.3828 120.1582,346.3828 Q120.8638,346.3828 121.5112,346.5322 Q122.1587,346.6816 122.7231,346.9805 L122.7231,349.7031 Q122.0923,349.1221 121.4988,348.8523 Q120.9053,348.5825 120.2744,348.5825 Q118.9297,348.5825 118.2449,349.6492 Q117.5601,350.7158 117.5601,352.8159 Q117.5601,354.9077 118.2449,355.9744 Q118.9297,357.041 120.2744,357.041 Q120.9053,357.041 121.4988,356.7712 Q122.0923,356.5015 122.7231,355.9204 Z " fill="#000000"/><text fill="#000000" font-family="sans-serif" font-size="12" lengthAdjust="spacing" textLength="76" x="140.25" y="357.5352">Configuration</text><line style="stroke:#000000;stroke-width:1.5;" x1="56" x2="268" y1="369" y2="369"/><ellipse cx="66" cy="380" rx="3" ry="3" style="stroke:#038048;stroke-width:1.0;fill:none;"/><text fill="#000000" font-family="sans-serif" font-size="11" lengthAdjust="spacing" textLength="161" x="75" y="383.6348">parameter_map: Dict[str, Any]</text><ellipse cx="66" cy="392.9551" rx="3" ry="3" style="stroke:#038048;stroke-width:1.0;fill:none;"/><text fill="#000000" font-family="sans-serif" font-size="11" lengthAdjust="spacing" textLength="188" x="75" y="396.5898">definition_map: Dict[str, Definition]</text><ellipse cx="66" cy="405.9102" rx="3" ry="3" style="stroke:#038048;stroke-width:1.0;fill:none;"/><text fill="#000000" font-family="sans-serif" font-size="11" lengthAdjust="spacing" textLength="181" x="75" y="409.5449">definition_alias_map: Dict[str, str]</text><line style="stroke:#000000;stroke-width:1.5;" x1="56" x2="268" y1="415.8652" y2="415.8652"/><!--MD5=[da86a89154cd9b6772691877b78894c0]
reverse link psr.container.ContainerInterface to md.di.Container--><path d="M162,135.25 C162,135.25 162,189.94 162,189.94 " fill="none" id="psr.container.ContainerInterface-backto-md.di.Container" style="stroke:#333333;stroke-width:1.0;stroke-dasharray:7.0,7.0;"/><polygon fill="none" points="155,135.25,162,115.25,169,135.25,155,135.25" style="stroke:#333333;stroke-width:1.0;"/><!--MD5=[0874ed18c70fcc1972706e796bd25e1d]
link md.di.Container to md.di.Configuration--><path codeLine="46" d="M162,289.21 C162,289.21 162,323.96 162,323.96 " fill="none" id="md.di.Container-md.di.Configuration" style="stroke:#333333;stroke-width:1.0;"/><polygon fill="#333333" points="162,336.96,166,327.96,162,331.96,158,327.96,162,336.96" style="stroke:#333333;stroke-width:1.0;"/><line style="stroke:#333333;stroke-width:1.0;" x1="162" x2="162" y1="331.96" y2="323.96"/><polygon fill="#333333" points="162,277.21,158,283.21,162,289.21,166,283.21,162,277.21" style="stroke:#333333;stroke-width:1.0;"/><!--MD5=[b0fb38c89ae9d25215c139fdf57c6898]
link md.di.Configuration to md.di.Definition--><path codeLine="47" d="M162,436.16 C162,436.16 162,470.94 162,470.94 " fill="none" id="md.di.Configuration-md.di.Definition" style="stroke:#333333;stroke-width:1.0;"/><polygon fill="#333333" points="162,483.94,166,474.94,162,478.94,158,474.94,162,483.94" style="stroke:#333333;stroke-width:1.0;"/><line style="stroke:#333333;stroke-width:1.0;" x1="162" x2="162" y1="478.94" y2="470.94"/><polygon fill="#FFFFFF" points="162,424.16,158,430.16,162,436.16,166,430.16,162,424.16" style="stroke:#333333;stroke-width:1.0;"/><!--MD5=[3a841155d3af20e48825fc5b1cce3dde]
link md.di.Definition to md.di.Reference--><path codeLine="48" d="M304.01,554 C304.01,554 313.59,554 313.59,554 " fill="none" id="md.di.Definition-md.di.Reference" style="stroke:#333333;stroke-width:1.0;"/><polygon fill="#333333" points="326.59,554,317.59,550,321.59,554,317.59,558,326.59,554" style="stroke:#333333;stroke-width:1.0;"/><line style="stroke:#333333;stroke-width:1.0;" x1="321.59" x2="313.59" y1="554" y2="554"/><polygon fill="#FFFFFF" points="292.01,554,298.01,558,304.01,554,298.01,550,292.01,554" style="stroke:#333333;stroke-width:1.0;"/><!--MD5=[78bb166a5caa02c7eafcbe5677c9d61e]
@startuml

skinparam class {
  BackgroundColor #ebebeb
  ArrowColor      #333
  BorderColor     #000
}

skinparam lineType ortho

package psr.container {
  interface psr.container.ContainerInterface {
     + get (id_: str) -> object
     + has (id_: str) -> bool
  }
}

package md.di {
  class md.di.Container implements psr.container.ContainerInterface {
    + get (id_: str) -> object
    + has (id_: str) -> bool
    - - -
    + set (id_: str, instance: object) -> None
  }

  class md.di.Reference {
    + id: str
  }

  class md.di.Definition {
    + class_: Optional[type]
    + factory: Optional[FactoryType]
    + arguments: Dict[str, Union[Reference, Any]]
    + calls: List[DefinitionCallType]
    + public: bool
    + shared: bool
    + tags: List[DefinitionTagType]
  }

  class md.di.Configuration {
    + parameter_map: Dict[str, Any]
    + definition_map: Dict[str, Definition]
    + definition_alias_map: Dict[str, str]
  }
}

md.di.Container *- -> md.di.Configuration
md.di.Configuration o- -> md.di.Definition
md.di.Definition o-> md.di.Reference

@enduml

PlantUML version 1.2022.0(Tue Jan 11 19:16:42 MSK 2022)
(GPL source distribution)
Java Runtime: OpenJDK Runtime Environment
JVM: OpenJDK 64-Bit Server VM
Default Encoding: UTF-8
Language: ru
Country: RU
--></g></svg>